<svg width="24" height="24" viewBox="0 0 24 24" fill="none" xmlns="http://www.w3.org/2000/svg">
<path fill-rule="evenodd" clip-rule="evenodd" d="M1.771 0H22.222C23.2 0 24 0.774 24 1.729V22.271C24 23.227 23.2 24 22.222 24H1.771C0.792 24 0 23.227 0 22.271V1.729C0 0.774 0.792 0 1.771 0ZM3.274 5.368C3.274 6.507 4.193 7.433 5.337 7.433C6.476 7.433 7.401 6.507 7.401 5.368C7.401 4.23 6.477 3.305 5.337 3.305C4.194 3.305 3.274 4.23 3.274 5.368ZM16.893 20.452H20.447H20.448V14.166C20.448 11.081 19.782 8.711 16.181 8.711C14.448 8.711 13.288 9.661 12.811 10.561H12.765V9H9.351V20.452H12.905V14.785C12.905 13.291 13.188 11.846 15.041 11.846C16.866 11.846 16.893 13.555 16.893 14.883V20.452ZM3.555 20.452V9H7.119V20.452H3.555Z" fill="#0966C2"/>
</svg>
